<svg xmlns="http://www.w3.org/2000/svg" width="107.187" height="98.72" viewBox="0 0 107.187 98.72">
  <g id="Group_5876" data-name="Group 5876" transform="translate(-703 -206.074)">
    <path id="Path_4212" data-name="Path 4212" d="M133.777,94.9h12.661a3.116,3.116,0,0,1,3.117,3.117v12.661a3.116,3.116,0,0,1-3.117,3.117H133.777a3.116,3.116,0,0,1-3.117-3.117V98.017a3.116,3.116,0,0,1,3.117-3.117" transform="translate(572.34 191)" fill="#efcb3a"/>
    <path id="Path_4213" data-name="Path 4213" d="M326.369,162.05a7.379,7.379,0,1,1-7.379,7.379,7.379,7.379,0,0,1,7.379-7.379" transform="translate(437.01 44.024)" fill="#549b49"/>
    <path id="Path_4214" data-name="Path 4214" d="M324.177,162.05a5.187,5.187,0,1,1-5.187,5.187,5.187,5.187,0,0,1,5.187-5.187" transform="translate(480.823 101.254)" fill="#e50756"/>
  </g>
</svg>
