<svg width="974" height="974" viewBox="0 0 974 974" fill="none" xmlns="http://www.w3.org/2000/svg">
<g clip-path="url(#clip0_197_428)">
<g clip-path="url(#clip1_197_428)">
<path d="M566.779 80.2517L892.803 406.275C903.342 416.814 911.703 429.325 917.407 443.095C923.11 456.865 926.046 471.623 926.046 486.527C926.046 501.432 923.11 516.19 917.406 529.96C911.702 543.73 903.342 556.241 892.802 566.779L566.779 892.803C556.24 903.342 543.729 911.703 529.959 917.407C516.19 923.111 501.431 926.047 486.527 926.047C471.623 926.047 456.864 923.111 443.094 917.407C429.325 911.703 416.813 903.343 406.275 892.804L80.2512 566.78C69.7119 556.241 61.3518 543.73 55.648 529.96C49.9442 516.191 47.0085 501.432 47.0086 486.528C47.0086 471.624 49.9445 456.865 55.6484 443.096C61.3523 429.326 69.7126 416.815 80.2519 406.276L406.275 80.2524C416.814 69.7131 429.325 61.3528 443.095 55.6489C456.865 49.945 471.623 47.0092 486.527 47.0091C501.432 47.009 516.19 49.9447 529.96 55.6485C543.729 61.3523 556.241 69.7125 566.779 80.2517Z" fill="#F26851"/>
</g>
</g>
<defs>
<clipPath id="clip0_197_428">
<rect width="973.055" height="973.055" fill="white"/>
</clipPath>
<clipPath id="clip1_197_428">
<rect width="973.055" height="973.055" fill="white"/>
</clipPath>
</defs>
</svg>
