<svg xmlns="http://www.w3.org/2000/svg" width="467.445" height="391.917" viewBox="0 0 467.445 391.917">
  <g id="Group_5868" data-name="Group 5868" transform="translate(-1076 -290.067)">
    <path id="Path_4223" data-name="Path 4223" d="M326.369,162.05a7.379,7.379,0,1,1-7.379,7.379,7.379,7.379,0,0,1,7.379-7.379" transform="translate(895.744 128.017)" fill="#02a3c0"/>
    <path id="Path_4220" data-name="Path 4220" d="M24.853,0h0C11.129,0,0,10.844,0,24.225V66.284H49.713V24.225C49.713,10.844,38.583,0,24.853,0" transform="translate(1076 363.196)" fill="#559e55"/>
    <path id="Path_4222" data-name="Path 4222" d="M4.38,0H22.172a4.379,4.379,0,0,1,4.38,4.38V22.172a4.379,4.379,0,0,1-4.38,4.38H4.38A4.379,4.379,0,0,1,0,22.172V4.38A4.379,4.379,0,0,1,4.38,0" transform="translate(1296.388 329.774) rotate(45)" fill="#efcb3a"/>
    <g id="Group_5867" data-name="Group 5867" transform="translate(0 -28.988)">
      <path id="Path_4250" data-name="Path 4250" d="M32.832,0h133.38a32.831,32.831,0,0,1,32.832,32.832v133.38a32.831,32.831,0,0,1-32.832,32.832H32.832A32.831,32.831,0,0,1,0,166.213V32.832A32.831,32.831,0,0,1,32.832,0" transform="translate(1402.7 429.48) rotate(45)" fill="#f26851"/>
      <path id="Path_4249" data-name="Path 4249" d="M32.832,0h133.38a32.831,32.831,0,0,1,32.832,32.832v133.38a32.831,32.831,0,0,1-32.832,32.832H32.832A32.831,32.831,0,0,1,0,166.213V32.832A32.831,32.831,0,0,1,32.832,0" transform="translate(1298.641 429.48) rotate(45)" fill="#f26851"/>
    </g>
  </g>
</svg>
