<svg xmlns="http://www.w3.org/2000/svg" width="240" height="301.864" viewBox="0 0 240 301.864">
  <g id="Group_5875" data-name="Group 5875" transform="translate(-1191.089 -986.105)">
    <path id="Path_4223" data-name="Path 4223" d="M326.137,162.05a7.147,7.147,0,1,1-7.147,7.147,7.147,7.147,0,0,1,7.147-7.147" transform="translate(956.807 824.055)" fill="#e50756"/>
    <path id="Path_4221" data-name="Path 4221" d="M64.282,0h0C28.786,0,0,28.047,0,62.659v76.486H128.582V62.659C128.582,28.047,99.8,0,64.282,0" transform="translate(1291.944 1287.97) rotate(-90)" fill="#559e55"/>
    <path id="Path_4220" data-name="Path 4220" d="M64.282,0h0C28.786,0,0,28.047,0,62.659V171.443H128.582V62.659C128.582,28.047,99.8,0,64.282,0" transform="translate(1259.645 1194.625) rotate(-90)" fill="#559e55"/>
    <path id="Path_4222" data-name="Path 4222" d="M6.533,0H33.071A6.532,6.532,0,0,1,39.6,6.533V33.071A6.532,6.532,0,0,1,33.071,39.6H6.533A6.532,6.532,0,0,1,0,33.071V6.533A6.532,6.532,0,0,1,6.533,0" transform="translate(1219.093 1031.193) rotate(45)" fill="#efcb3a"/>
  </g>
</svg>
